<svg width="46" height="46" viewBox="0 0 46 46" fill="none" xmlns="http://www.w3.org/2000/svg">
    <path fill-rule="evenodd" clip-rule="evenodd"
        d="M22.75 0.25C10.185 0.25 0 10.435 0 23C0 35.565 10.185 45.75 22.75 45.75C35.315 45.75 45.5 35.565 45.5 23C45.5 10.435 35.315 0.25 22.75 0.25ZM5.425 31.4C7.33894 35.3498 10.5452 38.5269 14.5122 40.4048C18.4793 42.2826 22.9689 42.7484 27.237 41.725C26.909 40.8512 26.3222 40.0983 25.5551 39.5668C24.788 39.0352 23.877 38.7503 22.9437 38.75C22.4004 38.7501 21.8746 38.5574 21.4602 38.2062C21.0457 37.8549 20.7693 37.368 20.6803 36.832L20.51 35.8123C20.2907 34.494 21.0933 33.2223 22.3767 32.856L24.6867 32.198C25.683 31.911 26.5137 31.2227 26.978 30.294L27.062 30.1237C27.3023 29.6429 27.6534 29.2261 28.0865 28.9077C28.5196 28.5894 29.0221 28.3785 29.5527 28.2926C30.0833 28.2067 30.6267 28.2481 31.1381 28.4136C31.6495 28.579 32.1143 28.8636 32.494 29.244L33.25 30H34.7153C35.6647 29.9998 36.5964 30.257 37.4112 30.7444C38.226 31.2317 38.8934 31.9308 39.3423 32.7673C40.9869 29.9739 41.8994 26.8104 41.9952 23.5702C42.091 20.33 41.3671 17.1181 39.8905 14.2324C38.4138 11.3466 36.2324 8.88051 33.5485 7.06273C30.8645 5.24494 27.765 4.13436 24.5373 3.834C24.64 4.44533 24.9573 5.00767 25.445 5.41133L27.937 7.488C28.9683 8.349 29.1853 9.84467 28.441 10.9647L27.251 12.752C26.603 13.7232 25.6497 14.4506 24.542 14.8193L24.2083 14.9313C23.8318 15.0572 23.4894 15.2682 23.2077 15.5479C22.9259 15.8276 22.7124 16.1684 22.5838 16.544C22.4551 16.9195 22.4148 17.3197 22.4659 17.7134C22.517 18.1071 22.6581 18.4837 22.8783 18.814C23.7393 20.109 23.2727 21.8637 21.882 22.559L15.75 25.625L16.737 28.096C16.9361 28.5979 16.9463 29.1549 16.7659 29.6638C16.5855 30.1727 16.2267 30.5988 15.756 30.8633C15.2853 31.1277 14.7346 31.2124 14.2062 31.1017C13.6777 30.991 13.2074 30.6924 12.8823 30.2613L11.298 28.1473C11.0295 27.7895 10.674 27.5062 10.2652 27.3244C9.85647 27.1426 9.40803 27.0683 8.96248 27.1085C8.51692 27.1487 8.08904 27.3021 7.71943 27.5542C7.34983 27.8062 7.05078 28.1486 6.85067 28.5487L5.425 31.4Z"
        fill="#292929" />
</svg>
