<svg width="136" height="136" viewBox="0 0 136 136" fill="none" xmlns="http://www.w3.org/2000/svg">
    <g filter="url(#filter0_d_1_375)">
        <rect x="6" y="4" width="120" height="120" rx="60" fill="#E2437C" />
    </g>
    <path fill-rule="evenodd" clip-rule="evenodd"
        d="M66 43.75C66.5967 43.75 67.169 43.9871 67.591 44.409C68.0129 44.831 68.25 45.4033 68.25 46V61.75H84C84.5967 61.75 85.169 61.9871 85.591 62.409C86.0129 62.831 86.25 63.4033 86.25 64C86.25 64.5967 86.0129 65.169 85.591 65.591C85.169 66.0129 84.5967 66.25 84 66.25H68.25V82C68.25 82.5967 68.0129 83.169 67.591 83.591C67.169 84.0129 66.5967 84.25 66 84.25C65.4033 84.25 64.831 84.0129 64.409 83.591C63.9871 83.169 63.75 82.5967 63.75 82V66.25H48C47.4033 66.25 46.831 66.0129 46.409 65.591C45.9871 65.169 45.75 64.5967 45.75 64C45.75 63.4033 45.9871 62.831 46.409 62.409C46.831 61.9871 47.4033 61.75 48 61.75H63.75V46C63.75 45.4033 63.9871 44.831 64.409 44.409C64.831 43.9871 65.4033 43.75 66 43.75Z"
        fill="white" />
    <defs>
        <filter id="filter0_d_1_375" x="0" y="0" width="136" height="136"
            filterUnits="userSpaceOnUse" color-interpolation-filters="sRGB">
            <feFlood flood-opacity="0" result="BackgroundImageFix" />
            <feColorMatrix in="SourceAlpha" type="matrix"
                values="0 0 0 0 0 0 0 0 0 0 0 0 0 0 0 0 0 0 127 0" result="hardAlpha" />
            <feOffset dx="2" dy="4" />
            <feGaussianBlur stdDeviation="4" />
            <feComposite in2="hardAlpha" operator="out" />
            <feColorMatrix type="matrix" values="0 0 0 0 0 0 0 0 0 0 0 0 0 0 0 0 0 0 0.25 0" />
            <feBlend mode="normal" in2="BackgroundImageFix" result="effect1_dropShadow_1_375" />
            <feBlend mode="normal" in="SourceGraphic" in2="effect1_dropShadow_1_375"
                result="shape" />
        </filter>
    </defs>
</svg>
