<svg width="56" height="56" viewBox="0 0 56 56" fill="none" xmlns="http://www.w3.org/2000/svg">
    <path fill-rule="evenodd" clip-rule="evenodd" d="M17.5 14C17.5 11.2152 18.6063 8.54451 20.5754 6.57538C22.5445 4.60625 25.2153 3.5 28 3.5C30.7848 3.5 33.4555 4.60625 35.4246 6.57538C37.3938 8.54451 38.5 11.2152 38.5 14C38.5 16.7848 37.3938 19.4555 35.4246 21.4246C33.4555 23.3938 30.7848 24.5 28 24.5C25.2153 24.5 22.5445 23.3938 20.5754 21.4246C18.6063 19.4555 17.5 16.7848 17.5 14ZM8.75235 46.9117C8.83103 41.8588 10.8935 37.0395 14.4946 33.494C18.0957 29.9486 22.9465 27.9614 28 27.9614C33.0535 27.9614 37.9044 29.9486 41.5055 33.494C45.1065 37.0395 47.169 41.8588 47.2477 46.9117C47.2538 47.2518 47.1605 47.5864 46.9794 47.8744C46.7983 48.1624 46.5372 48.3914 46.228 48.5333C40.5094 51.1553 34.2911 52.5085 28 52.5C21.4994 52.5 15.323 51.0813 9.77202 48.5333C9.46282 48.3914 9.2017 48.1624 9.0206 47.8744C8.8395 47.5864 8.74628 47.2518 8.75235 46.9117Z" fill="#292929"/>
</svg>
